<?xml version="1.0" encoding="UTF-8"?>
<svg id="Calque_1" xmlns="http://www.w3.org/2000/svg" version="1.1" viewBox="0 0 293.97 153.11">
  <defs>
    <style>
      .st0 {
        fill: #ecebe6;
      }
    </style>
  </defs>
  <g>
    <polygon class="st0" points="154.12 49.59 104.53 0 104.53 79.35 119.41 79.35 119.41 34.71 144.2 59.51 154.12 49.59"/>
    <polygon class="st0" points="183.88 3.97 183.88 0 149.16 34.72 151.15 36.7 183.88 3.97"/>
    <polygon class="st0" points="183.88 7.93 153.13 38.68 155.11 40.67 183.88 11.9 183.88 7.93"/>
    <polygon class="st0" points="183.88 15.87 157.1 42.65 159.08 44.63 169 34.71 169 79.35 171.98 79.35 171.98 31.74 171.98 31.74 174.95 28.76 174.95 79.35 177.93 79.35 177.93 25.79 177.93 25.79 180.9 22.81 180.9 79.35 183.88 79.35 183.88 19.84 183.88 19.84 183.88 19.84 183.88 15.87"/>
  </g>
  <g>
    <path class="st0" d="M44.34,152.42l-.07-32-15.86,26.48h-4l-15.86-26.07v31.59H0v-48.28h7.38l19.17,32,18.83-32h7.38l.07,48.28h-8.48Z"/>
    <path class="st0" d="M105.53,144.91v7.52h-36.21v-48.28h35.24v7.52h-26.27v12.55h23.31v7.38h-23.31v13.31h27.24Z"/>
    <path class="st0" d="M114.92,147.32l3.1-6.97c3.86,3.11,10,5.31,15.93,5.31,7.52,0,10.69-2.69,10.69-6.28,0-10.41-28.69-3.59-28.69-21.52,0-7.79,6.21-14.41,19.45-14.41,5.79,0,11.86,1.52,16.07,4.27l-2.83,6.97c-4.34-2.55-9.1-3.79-13.31-3.79-7.45,0-10.48,2.9-10.48,6.55,0,10.28,28.62,3.59,28.62,21.31,0,7.72-6.28,14.34-19.52,14.34-7.52,0-15.03-2.34-19.03-5.79Z"/>
    <path class="st0" d="M174.92,111.73h-16v-7.59h40.97v7.59h-16v40.69h-8.97v-40.69Z"/>
    <path class="st0" d="M246.31,144.91v7.52h-36.21v-48.28h35.24v7.52h-26.28v12.55h23.31v7.38h-23.31v13.31h27.24Z"/>
    <path class="st0" d="M259.77,104.15h8.96v40.69h25.24v7.59h-34.21v-48.28Z"/>
  </g>
</svg>
